<?xml version="1.0" standalone="no"?><!DOCTYPE svg PUBLIC "-//W3C//DTD SVG 1.1//EN" "http://www.w3.org/Graphics/SVG/1.1/DTD/svg11.dtd"><svg t="1728377300110" class="icon" viewBox="0 0 1024 1024" version="1.1" xmlns="http://www.w3.org/2000/svg" p-id="8058" xmlns:xlink="http://www.w3.org/1999/xlink" width="200" height="200"><path d="M512 512m-512 0a512 512 0 1 0 1024 0 512 512 0 1 0-1024 0Z" fill="#FF8B38" p-id="8059"></path><path d="M644.6976 204.8c8.32 0 16.256 3.5328 21.824 9.728 4.9408 5.4912 6.784 13.056 5.0048 20.1344l-0.576 1.92-38.4512 110.1056h0.1792l69.8496 283.0848a51.2 51.2 0 0 1-17.8816 52.3648l-140.8128 111.7952a51.2 51.2 0 0 1-63.6672 0l-140.8128-111.7952a51.2 51.2 0 0 1-18.4576-49.7024l0.576-2.6624 69.8496-283.0848h0.1792l-38.4512-110.1056a22.0928 22.0928 0 0 1 4.4288-22.0672A29.3504 29.3504 0 0 1 379.3024 204.8h265.3952z m-60.4672 317.0688a12.928 12.928 0 0 0-17.8688-3.9296l-108.7232 69.5552a43.1616 43.1616 0 0 0-19.9168 36.352 12.928 12.928 0 0 0 19.9168 10.9056l108.7232-69.5424a43.1616 43.1616 0 0 0 19.9168-36.3648 12.928 12.928 0 0 0-2.048-6.976z m0-123.6224a12.928 12.928 0 0 0-17.8688-3.9296l-108.7232 69.5424a43.1616 43.1616 0 0 0-19.9168 36.3648 12.928 12.928 0 0 0 19.9168 10.9056l108.7232-69.5424a43.1616 43.1616 0 0 0 19.9168-36.3648 12.928 12.928 0 0 0-2.048-6.976z" fill="#FFFFFF" p-id="8060"></path><path d="M737.2032 578.9184l38.4-83.2-96-108.8z" fill="#FFFFFF" fill-opacity=".702" p-id="8061"></path></svg>